<svg width="40" height="40" viewBox="0 0 40 40" fill="none" xmlns="http://www.w3.org/2000/svg">
<g id="Group">
<path id="Vector" d="M1.72545 0.135166C0.959453 0.408707 0.318515 1.08865 0.099658 1.85457C-0.259893 3.09723 0.420127 4.46494 1.63166 4.92606C2.1788 5.13708 3.00733 5.12926 3.5232 4.90261L3.91402 4.73849L5.36786 6.19217L6.82169 7.64585L6.67318 7.84123C6.5872 7.94284 6.27455 8.32579 5.98534 8.67749C4.17196 10.8815 2.88227 13.6481 2.30386 16.5789L2.1319 17.4308L1.68637 17.6184C0.873473 17.9467 0.412311 18.4078 0.146556 19.1737C-0.048852 19.7286 -0.048852 20.2757 0.146556 20.8306C0.412311 21.5965 0.873473 22.0576 1.67855 22.3859L2.12408 22.5656L2.30386 23.4331C2.8979 26.4108 4.21886 29.2166 6.03224 31.3893C6.298 31.7097 6.5872 32.0536 6.67318 32.163L6.82169 32.3584L5.36786 33.8121L3.91402 35.2658L3.5232 35.1016C3.24182 34.9766 2.96825 34.9297 2.57743 34.9297C1.55349 34.9297 0.771861 35.3908 0.302882 36.274C0.0605765 36.7195 0.0371275 36.8289 0.0293112 37.4307C0.0293112 37.9465 0.0683928 38.1731 0.20127 38.4623C0.43576 38.9781 0.951637 39.5018 1.46751 39.7519C1.83488 39.9394 2.00684 39.9707 2.53053 39.9707C3.08549 39.9707 3.22618 39.9394 3.67953 39.7128C4.59404 39.2673 5.07084 38.4779 5.07084 37.4228C5.07084 37.0321 5.02394 36.7585 4.89888 36.4772L4.73473 36.0864L6.18857 34.6327L7.6424 33.179L7.83781 33.3275C7.93942 33.4135 8.31461 33.7261 8.67416 34.0153C10.9253 35.8519 13.6532 37.1259 16.5765 37.6964L17.4284 37.8683L17.616 38.3138C17.9443 39.1266 18.4055 39.5877 19.1715 39.8535C19.7264 40.0488 20.2736 40.0488 20.8285 39.8535C21.5945 39.5877 22.0557 39.1266 22.384 38.3138L22.5716 37.8683L23.4235 37.6964C26.339 37.1259 29.1373 35.8207 31.3258 34.0231C31.6776 33.7261 32.0606 33.4135 32.1622 33.3275L32.3576 33.179L33.8114 34.6327L35.2653 36.0864L35.1011 36.4772C34.9761 36.7585 34.9292 37.0321 34.9292 37.4228C34.9292 38.4779 35.406 39.2673 36.3205 39.7128C36.7738 39.9394 36.9145 39.9707 37.4695 39.9707C37.9932 39.9707 38.1651 39.9394 38.5325 39.7519C39.0484 39.5018 39.5642 38.9781 39.7987 38.4623C39.9316 38.1731 39.9707 37.9465 39.9707 37.4307C39.9629 36.8289 39.9394 36.7195 39.6971 36.274C39.2203 35.3752 38.4621 34.9297 37.4226 34.9297C37.0318 34.9297 36.7582 34.9766 36.4768 35.1016L36.086 35.2658L34.6321 33.8121L33.1783 32.3584L33.3268 32.163C33.4128 32.0614 33.7255 31.6863 34.0147 31.3268C35.8515 29.0759 37.1255 26.3483 37.6961 23.4253L37.8681 22.5734L38.3136 22.3859C39.1265 22.0576 39.5877 21.5965 39.8534 20.8306C40.0489 20.2757 40.0489 19.7286 39.8534 19.1737C39.5877 18.4078 39.1265 17.9467 38.3136 17.6184L37.8681 17.4308L37.6961 16.5789C37.1255 13.6638 35.8202 10.8658 34.0225 8.67749C33.7255 8.32579 33.4128 7.94284 33.3268 7.84123L33.1783 7.64585L34.6321 6.19217L36.086 4.73849L36.4768 4.90261C36.7582 5.02766 37.0318 5.07455 37.4226 5.07455C38.4778 5.07455 39.2672 4.59781 39.7127 3.6834C39.9394 3.2301 39.9707 3.08942 39.9707 2.53452C39.9707 2.01088 39.9394 1.83894 39.7518 1.47161C39.5017 0.955791 38.978 0.439968 38.4621 0.205505C38.1729 0.0726433 37.9463 0.0335655 37.4304 0.0335655C36.8285 0.041378 36.7191 0.064827 36.2736 0.307106C35.3903 0.776035 34.9292 1.55758 34.9292 2.58141C34.9292 2.97219 34.9761 3.24573 35.1011 3.52708L35.2653 3.91786L33.8114 5.37154L32.3576 6.82522L32.1622 6.67673C32.0528 6.59076 31.7088 6.30158 31.3884 6.03586C29.2076 4.21485 26.3625 2.88622 23.4235 2.30787L22.5716 2.13593L22.384 1.69045C22.0557 0.877636 21.5945 0.416523 20.8285 0.150795C20.2736 -0.04459 19.7264 -0.04459 19.1715 0.150795C18.4055 0.416523 17.9443 0.877636 17.616 1.68263L17.4362 2.12811L16.5686 2.30787C13.5984 2.90185 10.9331 4.14451 8.67416 5.98896C8.31461 6.27814 7.93942 6.59076 7.83781 6.67673L7.6424 6.82522L6.18857 5.37154L4.73473 3.91786L4.89888 3.52708C5.12555 3.01126 5.13337 2.18282 4.92233 1.63574C4.44553 0.385262 2.96825 -0.310318 1.72545 0.135166ZM3.17147 1.33094C3.63263 1.55758 3.89839 2.01088 3.89839 2.58923C3.89839 3.36296 3.35906 3.90223 2.58525 3.90223C1.55349 3.90223 0.896922 2.96437 1.27992 2.04996C1.44406 1.65918 1.60821 1.48724 1.98339 1.3153C2.39766 1.12773 2.75721 1.12773 3.17147 1.33094ZM20.6019 1.3153C21.1803 1.58103 21.5242 2.33913 21.3288 2.92529C21.1255 3.54272 20.6409 3.90223 20 3.90223C19.5388 3.90223 19.2418 3.76937 18.9604 3.44112C18.3742 2.73772 18.5774 1.73734 19.3903 1.33094C19.8046 1.12773 20.172 1.12773 20.6019 1.3153ZM37.9541 1.28404C38.3449 1.44817 38.5169 1.61229 38.6888 1.98743C39.1265 2.93311 38.4778 3.90223 37.4148 3.90223C36.6409 3.90223 36.1016 3.36296 36.1016 2.58923C36.1016 1.55758 37.0318 0.901081 37.9541 1.28404ZM17.7255 3.70684C17.9756 4.17577 18.4367 4.62907 18.8901 4.85572C19.4138 5.11363 20.5784 5.11363 21.0943 4.86353C21.5476 4.63689 22.0401 4.15232 22.2745 3.69903L22.4621 3.33952L22.8373 3.39422C23.5252 3.48019 25.1119 3.91786 26.0029 4.26174C30.5677 6.02804 34.1866 9.71695 35.8671 14.3203C36.1407 15.0862 36.5393 16.5868 36.6097 17.1651L36.6644 17.5403L36.297 17.7278C35.828 17.9779 35.3747 18.4312 35.148 18.8923C34.9995 19.1971 34.9682 19.3847 34.9682 20.0021C34.9682 20.6196 34.9995 20.8071 35.148 21.1119C35.3747 21.573 35.828 22.0263 36.297 22.2764L36.6644 22.464L36.6097 22.8391C36.5393 23.4175 36.1407 24.9181 35.8671 25.684C33.9443 30.9516 29.4968 34.9766 24.1036 36.3365C23.619 36.4615 23.0484 36.5866 22.8373 36.61L22.4621 36.6647L22.2745 36.2974C22.0244 35.8285 21.5711 35.3752 21.1099 35.1485C20.5784 34.8906 19.4216 34.8906 18.8901 35.1485C18.4289 35.3752 17.9756 35.8285 17.7255 36.2974L17.5379 36.6647L17.1627 36.61C16.5843 36.5397 15.0835 36.1411 14.3175 35.8676C9.10405 33.9684 5.06302 29.5448 3.70298 24.2538C3.55447 23.6989 3.41378 23.058 3.39033 22.847L3.33561 22.4562L3.64827 22.3155C4.06253 22.1279 4.63312 21.5496 4.85198 21.1041C5.10992 20.5805 5.10992 19.416 4.85198 18.8923C4.62531 18.4312 4.07816 17.8841 3.65608 17.6887L3.33561 17.5481L3.38251 17.1573C3.47631 16.4773 3.9062 14.9221 4.25794 13.9998C6.2042 8.94322 10.5423 5.05892 15.7401 3.70684C17.4753 3.25354 17.4831 3.25354 17.7255 3.70684ZM3.02296 18.7126C3.60918 18.9627 3.89839 19.3847 3.89839 20.0021C3.89839 20.643 3.53884 21.1276 2.92135 21.3308C2.10845 21.5965 1.16268 20.8853 1.16268 20.0021C1.16268 19.4238 1.60039 18.8454 2.16317 18.6735C2.49145 18.5719 2.70249 18.5875 3.02296 18.7126ZM38.2355 18.8767C39.2516 19.5488 38.8764 21.151 37.6492 21.3698C37.1334 21.4636 36.4768 21.1197 36.2189 20.6196C36.0703 20.3382 36.0703 19.6661 36.211 19.3925C36.6019 18.6422 37.5242 18.4078 38.2355 18.8767ZM3.2809 36.2818C3.7108 36.571 3.89839 36.9227 3.89839 37.415C3.89839 38.4467 2.96043 39.1032 2.04592 38.7202C1.6551 38.5561 1.48315 38.392 1.31119 38.0168C0.88129 37.079 1.52223 36.102 2.57743 36.102C2.90572 36.102 3.08549 36.1489 3.2809 36.2818ZM20.6175 36.2193C20.9145 36.3678 21.2193 36.7351 21.3288 37.079C21.5242 37.6651 21.1803 38.4232 20.6019 38.689C19.234 39.3064 17.9834 37.6573 18.9682 36.5397C19.3512 36.1098 20.1251 35.9613 20.6175 36.2193ZM38.1808 36.2974C38.767 36.6413 38.9858 37.376 38.6888 38.0168C38.5169 38.392 38.3449 38.5561 37.9541 38.7202C37.0396 39.1032 36.1016 38.4467 36.1016 37.415C36.1016 36.9227 36.2892 36.571 36.7191 36.2818C37.0943 36.0239 37.7274 36.0317 38.1808 36.2974Z" fill="url(#paint0_linear_6060_153)"/>
<path id="Vector_2" d="M18.6717 7.2395C16.2486 7.49741 13.7318 8.54468 11.8715 10.0765C10.5505 11.1629 9.0576 12.9995 9.0576 13.531C9.0576 13.828 9.30772 14.0624 9.62819 14.0624C9.9174 14.0624 10.0503 13.9452 10.4489 13.3434L10.699 12.9839L11.3009 13.3434C11.637 13.5466 12.3248 13.9061 12.8329 14.1406C13.4895 14.4454 13.7396 14.6017 13.7083 14.6798C13.5754 15.0237 13.2706 17.0089 13.1924 18.0483C13.1455 18.7126 13.0908 19.3066 13.0752 19.3613C13.0517 19.4395 12.5437 19.4551 10.7225 19.4395L8.39322 19.416L8.41666 18.9471C8.44011 18.3453 8.61989 17.3918 8.85438 16.6024C9.0576 15.8991 9.02634 15.6255 8.69805 15.477C8.41666 15.352 8.30724 15.3676 8.08838 15.563C7.86952 15.7662 7.59595 16.6103 7.36146 17.7748C7.15042 18.8611 7.17387 21.323 7.40836 22.425C7.97895 25.1213 9.07323 27.1455 10.9648 29.0291C12.3483 30.4046 13.6145 31.2565 15.2716 31.913C21.4855 34.3592 28.4655 31.6941 31.4748 25.7153C31.6937 25.2698 31.8812 24.84 31.8812 24.7774C31.8812 24.5821 31.6546 24.3007 31.4435 24.2225C31.0762 24.0819 30.8964 24.2382 30.4665 25.0979C30.2476 25.5355 29.8959 26.153 29.6849 26.4656L29.3019 27.0361L28.8641 26.7548C28.5202 26.5359 26.6209 25.5668 26.316 25.4574C26.2848 25.4418 26.316 25.2229 26.3786 24.965C26.5505 24.2225 26.7928 22.4719 26.8475 21.5028L26.9023 20.6274H29.2862H31.6624L31.6155 20.8775C31.592 21.0182 31.553 21.4012 31.5217 21.7294C31.4748 22.2765 31.4826 22.339 31.6389 22.4953C31.8734 22.7298 32.319 22.6985 32.5144 22.425C32.8661 21.9326 32.9052 19.0878 32.5847 17.5403C32.0376 14.9143 30.9198 12.851 29.0361 10.9753C26.9179 8.86512 24.5495 7.68498 21.6419 7.2942C20.8915 7.20042 19.3517 7.16916 18.6717 7.2395ZM19.3751 11.4833V14.5313L18.8905 14.4845C17.9838 14.4063 16.7645 14.2109 15.9594 14.0077L15.17 13.8123L15.3497 13.2731C15.9672 11.4599 17.0459 9.81079 18.1402 9.0058C18.4684 8.77133 19.125 8.4509 19.3204 8.43527C19.3517 8.43527 19.3751 9.80298 19.3751 11.4833ZM21.4074 8.73225C21.9545 8.99017 22.9081 9.93584 23.4005 10.6861C23.8383 11.3661 24.3932 12.5149 24.6512 13.2731L24.8309 13.8123L24.0415 14.0077C23.2364 14.2109 22.0171 14.4063 21.1182 14.4845L20.6257 14.5313V11.4755V8.42745L20.8055 8.47434C20.8993 8.50561 21.1729 8.61502 21.4074 8.73225ZM16.2408 9.19337C15.5999 9.93584 14.701 11.5693 14.2867 12.765C14.1851 13.0542 14.0522 13.3199 13.9975 13.3356C13.8959 13.3747 11.9731 12.4446 11.6526 12.1945L11.465 12.0617L12.1216 11.4364C12.8485 10.7565 13.7943 10.0921 14.6697 9.63885C15.2325 9.35749 16.3033 8.91201 16.4362 8.9042C16.4675 8.9042 16.3815 9.03706 16.2408 9.19337ZM24.0806 9.09177C25.4093 9.58414 26.9023 10.522 27.9106 11.4755L28.5437 12.0773L27.9262 12.4446C27.1602 12.8901 26.0972 13.3747 25.9877 13.3356C25.9408 13.3121 25.8158 13.0542 25.7142 12.765C25.4015 11.835 24.6355 10.3813 24.0727 9.62322C23.7757 9.23244 23.5412 8.9042 23.5569 8.9042C23.5803 8.9042 23.8148 8.99017 24.0806 9.09177ZM29.7318 13.6169C30.7948 15.2504 31.5061 17.3058 31.5842 18.9862L31.6077 19.416L29.2784 19.4395C27.4572 19.4551 26.9491 19.4395 26.9257 19.3613C26.9101 19.3066 26.8554 18.7126 26.8085 18.0483C26.7303 17.0167 26.4255 15.0237 26.2926 14.6798C26.2613 14.6017 26.5583 14.4219 27.2852 14.078C27.8558 13.8123 28.5359 13.4528 28.7938 13.2887C29.0517 13.1167 29.2706 12.9761 29.2862 12.9761C29.294 12.9682 29.4973 13.2574 29.7318 13.6169ZM15.8969 15.1957C16.7801 15.4145 18.1323 15.6255 18.5857 15.6255C18.7498 15.6255 19 15.649 19.1328 15.6724L19.3751 15.7193V17.5872V19.4551H16.8192H14.2711L14.3258 18.5407C14.3805 17.5403 14.5447 16.282 14.7401 15.4458C14.8339 15.0081 14.8808 14.9221 14.9824 14.9612C15.0605 14.9925 15.467 15.0941 15.8969 15.1957ZM25.2686 15.4458C25.4562 16.282 25.6204 17.5403 25.6751 18.5407L25.7298 19.4551H23.1817H20.6257V17.5872V15.7115L20.9619 15.6724C21.1416 15.6568 21.6575 15.5942 22.1108 15.5474C22.9003 15.4614 24.5261 15.141 24.8778 15.0003C24.9638 14.9612 25.0654 14.9299 25.0967 14.9299C25.1201 14.9221 25.1983 15.1566 25.2686 15.4458ZM13.1221 21.0338C13.1221 21.9404 13.5207 24.8478 13.7161 25.3402C13.7396 25.4027 13.4191 25.5903 12.8329 25.8638C12.3248 26.0983 11.637 26.4578 11.3009 26.661L10.6912 27.0283L10.2769 26.3874C9.22956 24.7774 8.58862 22.9877 8.39322 21.112L8.34632 20.6274H10.7381H13.1221V21.0338ZM19.3751 22.4562V24.2773L19.1328 24.332C19 24.3554 18.742 24.3789 18.5622 24.3789C17.9213 24.3789 15.5686 24.8165 14.9824 25.0432C14.8808 25.0822 14.8339 24.9963 14.7401 24.5586C14.5525 23.7458 14.3805 22.4797 14.3258 21.5028L14.2711 20.6274H16.8192H19.3751V22.4562ZM25.6751 21.5028C25.6204 22.4797 25.4484 23.7458 25.2608 24.5586C25.167 24.9963 25.1201 25.0822 25.0185 25.0432C24.4323 24.8165 22.0796 24.3789 21.4386 24.3789C21.2589 24.3789 21.0009 24.3554 20.8681 24.332L20.6257 24.2773V22.4562V20.6274H23.1817H25.7298L25.6751 21.5028ZM19.3751 28.5289V31.5769L19.2032 31.53C18.359 31.2877 17.2804 30.3655 16.6003 29.3182C16.1626 28.6383 15.6077 27.4894 15.3497 26.7313L15.17 26.1842L16.1548 25.9498C16.702 25.8247 17.468 25.6762 17.851 25.6371C18.4763 25.559 18.7029 25.5355 19.2423 25.4887C19.3673 25.473 19.3751 25.6684 19.3751 28.5289ZM22.189 25.6371C22.5564 25.6762 23.2989 25.8169 23.8461 25.9498L24.8309 26.1842L24.6512 26.7313C23.8226 29.1619 22.2594 31.108 20.8055 31.53L20.6257 31.5769V28.5289V25.473L21.0791 25.5121C21.3214 25.5434 21.8216 25.5981 22.189 25.6371ZM14.3102 27.3097C14.7713 28.5836 15.5999 30.0763 16.2408 30.811C16.3815 30.9673 16.4753 31.1002 16.4518 31.1002C16.3346 31.1002 15.3576 30.6938 14.7948 30.4124C13.8646 29.9435 12.8563 29.2401 12.1138 28.5445L11.4572 27.9271L11.6839 27.7786C12.1138 27.4972 13.8646 26.6453 13.9741 26.661C14.0288 26.6766 14.1851 26.9658 14.3102 27.3097ZM26.7459 26.9502C27.1055 27.1143 27.6526 27.3956 27.9653 27.5832L28.5359 27.9115L28.1216 28.3413C27.1915 29.3026 25.4875 30.389 24.104 30.9048C23.8226 31.0142 23.5803 31.1002 23.5569 31.1002C23.5412 31.1002 23.7679 30.7797 24.0727 30.3811C24.6043 29.6621 25.3077 28.3569 25.636 27.466C25.7298 27.2081 25.8392 26.9189 25.8705 26.8173C25.9096 26.7235 25.9721 26.6453 26.019 26.6453C26.0581 26.6453 26.3864 26.7782 26.7459 26.9502Z" fill="url(#paint1_linear_6060_153)"/>
</g>
<defs>
<linearGradient id="paint0_linear_6060_153" x1="6.62506e-07" y1="11.0307" x2="40" y2="28.9693" gradientUnits="userSpaceOnUse">
<stop stop-color="#1C154F"/>
<stop offset="1" stop-color="#42C09A"/>
</linearGradient>
<linearGradient id="paint1_linear_6060_153" x1="7.2168" y1="14.2653" x2="32.8132" y2="25.731" gradientUnits="userSpaceOnUse">
<stop stop-color="#1C154F"/>
<stop offset="1" stop-color="#42C09A"/>
</linearGradient>
</defs>
</svg>
