<svg width="45" height="45" viewBox="0 0 45 45" fill="none" xmlns="http://www.w3.org/2000/svg">
<g id="Group">
<path id="Vector" d="M11.8146 3.38496C11.3617 3.57146 10.8599 4.06444 10.6651 4.53295C9.88176 6.36674 11.7128 8.18355 13.5435 7.38665L13.9875 7.19296L15.7953 8.63767L17.5959 10.0913L20.9808 9.73194L24.3738 9.37173L24.4838 9.56361C24.5522 9.67035 24.6207 9.93178 24.6429 10.1411C24.7181 10.8497 24.2994 11.3582 23.4966 11.5493C22.8998 11.686 22.537 12.1072 22.5163 12.6794L22.5009 13.0718L20.2926 13.3063L18.0925 13.5398L17.9561 13.2531C17.7738 12.8409 17.0908 12.319 16.5901 12.2093C15.529 11.9636 14.4901 12.4648 14.07 13.4213C13.6572 14.369 13.8904 15.3376 14.6935 15.9933C15.8604 16.9279 17.5111 16.5084 18.0496 15.1322L18.2363 14.6645L20.4284 14.4318L22.6125 14.1999L22.7048 14.5321C22.8103 14.9118 23.0736 15.2421 23.3469 15.3596C23.4487 15.3977 23.7304 15.441 23.9756 15.4476C24.4749 15.4679 24.7669 15.6079 25.0836 15.9813C25.2688 16.1897 25.3066 16.3159 25.3226 16.6969C25.3474 17.4678 25.6154 17.3824 21.7631 17.7914L18.3702 18.1516L16.9212 19.9339L15.4723 21.7162L15.0717 21.6285C13.8774 21.3563 12.6732 22.1436 12.457 23.331C12.3041 24.194 12.6144 24.9672 13.3126 25.4793C13.8245 25.8484 14.2017 25.9468 14.8223 25.8809C15.4428 25.815 15.791 25.6396 16.214 25.1713C16.8044 24.5142 16.9365 23.686 16.5799 22.8607L16.3861 22.4172L17.6757 20.8227L18.9653 19.2283L21.9231 18.9143L24.8808 18.6003L24.956 18.7715C25.0648 19.0286 26.6087 20.2897 26.9286 20.386C27.3754 20.5258 27.6282 20.4501 28.1369 20.0216C28.5485 19.6766 28.6651 19.6235 29.0448 19.5913C29.7298 19.5186 30.2557 19.9432 30.4426 20.705C30.5583 21.1813 30.8046 21.5053 31.178 21.6448C31.3817 21.7209 31.6664 21.7151 32.6228 21.5891C33.7647 21.4434 33.8283 21.4285 34.0093 21.2139C34.2776 20.9004 34.3474 20.7139 34.3597 20.2159C34.3741 19.6607 34.6241 19.2514 35.0727 19.0247C35.49 18.8094 35.8658 18.8183 36.2745 19.0599C36.926 19.4386 37.3553 19.4907 37.7361 19.2386C37.8501 19.1614 38.2498 18.7037 38.6388 18.2227C39.444 17.209 39.5087 16.9741 39.1732 16.4235C39.064 16.2396 38.8835 15.9982 38.7749 15.8958C38.4828 15.6011 38.403 15.0803 38.5825 14.6215C38.7548 14.1717 39.0486 13.9451 39.6661 13.7737C40.1411 13.6418 40.4036 13.4267 40.5631 13.0108C40.6973 12.6627 40.4786 10.7561 40.2612 10.3965C40.0535 10.0522 39.7186 9.89229 39.1799 9.88434C38.6152 9.86286 38.2537 9.6814 37.9891 9.26166C37.704 8.80337 37.7169 8.38674 38.0456 7.79815C38.5225 6.91698 38.3759 6.53357 37.2294 5.63748C36.3486 4.94116 36.1852 4.8608 35.7742 4.90443C35.5244 4.93096 35.3395 5.03201 34.9872 5.32183C34.5531 5.68547 34.4984 5.70756 34.0517 5.72241C33.7599 5.73711 33.4943 5.69202 33.347 5.60995C33.0686 5.44408 32.7293 4.93456 32.6968 4.6286C32.6609 4.29043 32.373 3.8813 32.081 3.7413C31.8497 3.63558 31.6457 3.63281 30.5738 3.74661L29.3407 3.87751L29.0669 4.21599C28.8355 4.49297 28.7928 4.62779 28.7846 5.01135C28.7729 5.74542 28.478 6.192 27.8953 6.38414C27.5251 6.50487 27.1441 6.4476 26.7014 6.19333C26.2855 5.96064 25.8804 5.90594 25.5352 6.03216C25.268 6.12566 23.8588 7.82233 23.8226 8.09488L23.7947 8.29326L20.8289 8.60812L17.8712 8.92212L16.2756 7.63401L14.6799 6.3459L14.7763 5.87155C15.1232 4.14923 13.4235 2.7256 11.8146 3.38496ZM13.198 4.51646C13.7022 4.81306 13.8335 5.58895 13.4597 6.06018C12.9113 6.72909 11.8413 6.47627 11.645 5.62586C11.4382 4.75215 12.4154 4.054 13.198 4.51646ZM31.5873 4.92552C31.6642 5.65018 32.4769 6.54914 33.2695 6.79884C34.1033 7.05231 35.1911 6.78211 35.6997 6.19885L35.8663 6.00204L36.517 6.52735L37.1758 7.05182L36.9466 7.42627C36.3573 8.40079 36.6566 9.76138 37.6159 10.5064C37.9797 10.7853 38.6005 11.0288 38.8915 11.0061C39.2944 10.9633 39.3237 11.009 39.4118 11.8383L39.4947 12.6194L39.0375 12.7656C37.7135 13.1912 36.9855 14.7015 37.4875 15.9755C37.5529 16.1314 37.7474 16.4283 37.9164 16.6383L38.2243 17.0046L37.7119 17.629L37.1995 18.2533L36.8604 18.0532C35.3648 17.1698 33.4185 18.1825 33.2451 19.9271L33.198 20.4044L32.3679 20.4925L31.5378 20.5806L31.5138 20.3552C31.4386 19.6466 30.7614 18.8717 29.9556 18.5746C29.0908 18.2592 28.0004 18.5053 27.4333 19.1517C27.2794 19.3146 27.2714 19.3155 26.6198 18.7821L25.9601 18.2496L26.1097 18.0465C26.3953 17.666 26.5251 17.123 26.461 16.5191C26.3294 15.2791 25.3789 14.3866 24.1245 14.3163L23.78 14.2958L23.6971 13.5148L23.6133 12.7257L24.0302 12.5838C24.9051 12.3036 25.3926 11.8285 25.6787 10.992C25.9529 10.1975 25.7039 9.15724 25.0985 8.52126C24.9614 8.38111 24.9813 8.33828 25.4631 7.73344L25.9738 7.09297L26.2522 7.25883C26.7063 7.54446 27.148 7.63599 27.7283 7.57439C28.921 7.44776 29.89 6.44108 29.9001 5.3082L29.9036 4.9577L30.7338 4.86957C31.4913 4.78915 31.5736 4.79669 31.5873 4.92552ZM16.4341 13.3495C16.5707 13.4083 16.774 13.5577 16.87 13.694C17.6081 14.6579 16.3445 15.8832 15.3996 15.1204C14.4814 14.3792 15.3291 12.9213 16.4341 13.3495ZM14.9908 22.7851C15.7733 23.0929 15.8645 24.1825 15.1437 24.6091C14.7451 24.8468 14.6717 24.8465 14.2402 24.6969C13.4603 24.4133 13.3076 23.4361 13.9635 22.9349C14.2573 22.7083 14.6432 22.6592 14.9908 22.7851Z" fill="url(#paint0_linear_6060_162)"/>
<path id="Vector_2" d="M30.1816 8.1852C29.2592 8.47854 28.3052 9.16607 27.759 9.93245C27.3544 10.4965 26.9552 11.573 26.8981 12.263C26.8409 12.9531 27.0386 14.0476 27.3229 14.6525C28.1111 16.3195 29.8796 17.3938 31.7576 17.3492C33.9765 17.2927 35.9367 15.4887 36.228 13.243C36.3182 12.5576 36.174 11.5063 35.9024 10.8674C35.0894 8.96696 33.0727 7.78056 31.0604 8.01862C30.755 8.05918 30.3555 8.13417 30.1816 8.1852ZM32.1278 9.16738C32.8092 9.29047 33.1949 9.46936 33.7539 9.89856C36.0435 11.6585 35.3167 15.2533 32.5121 16.0884C31.6274 16.3533 30.5095 16.187 29.6564 15.675C28.8203 15.1694 28.1598 14.0914 28.0496 13.0528C27.8034 10.7339 29.8753 8.75511 32.1278 9.16738Z" fill="url(#paint1_linear_6060_162)"/>
<path id="Vector_3" d="M22.0158 28.3824C21.78 28.4645 19.7934 29.4815 17.6093 30.6334L13.6357 32.7408L11.6451 32.9521L9.64636 33.1643L9.56088 32.3591C9.4318 31.1433 9.66686 31.2079 6.55599 31.5382L3.98509 31.8111L3.8355 32.0143L3.67786 32.2183L4.29759 38.0558L4.91817 43.9014L5.12148 44.0508C5.32565 44.2082 5.37401 44.2031 7.88044 43.937C10.9833 43.6076 10.767 43.7201 10.6379 42.5043L10.5524 41.6991L11.0279 41.6487C11.713 41.5759 13.9345 41.5437 17.3418 41.5483C21.2224 41.5598 22.7181 41.5231 25.1649 41.3855C29.4326 41.1278 32.8413 40.3018 34.8175 39.0335C35.0851 38.8667 36.1929 38.0163 37.2917 37.1586C38.3897 36.293 40.1419 34.91 41.1869 34.0825C43.2032 32.5005 43.4469 32.263 43.6662 31.7186C43.8593 31.2339 43.7669 30.3644 43.4773 29.9391C42.9354 29.1336 41.8084 28.8054 40.9705 29.2037C40.8 29.287 38.913 30.6273 36.7796 32.181C34.6462 33.7347 32.8668 35.0147 32.8265 35.0189C32.754 35.0266 25.8025 33.4196 25.7579 33.3836C25.749 33.3764 25.7736 33.3005 25.8223 33.2221C25.8909 33.1008 26.3642 32.9528 28.0857 32.5095C30.6317 31.8484 30.7186 31.8229 31.1896 31.4228C32.1782 30.6013 32.1804 29.0865 31.2054 28.2699C30.5083 27.6925 30.5325 27.69 27.1073 28.0536C24.7379 28.3052 24.002 28.3589 23.7508 28.296C23.2412 28.1791 22.4955 28.2175 22.0158 28.3824ZM23.7377 29.478C25.1181 29.9666 25.6141 31.7215 24.6838 32.8625C23.4951 34.3322 21.0991 33.6421 20.8838 31.7677C20.7663 30.738 21.3374 29.8224 22.3327 29.448C22.6699 29.3227 23.3312 29.3339 23.7377 29.478ZM30.2298 28.9842C30.731 29.1753 30.9682 29.8748 30.6814 30.3205C30.4585 30.678 30.1778 30.7974 28.4169 31.253C27.5279 31.4777 26.6954 31.6963 26.5609 31.735L26.3153 31.8018L26.3095 31.3627C26.2951 30.8431 26.0986 30.2207 25.7682 29.7184L25.5426 29.3597L27.7589 29.1244C29.5884 28.9302 30.0261 28.9081 30.2298 28.9842ZM19.7313 31.3527C19.6778 32.3843 20.1266 33.3871 20.9467 34.0491C21.945 34.8551 23.267 35.0241 24.392 34.4894L24.7257 34.3319L28.5108 35.2084C31.3599 35.8668 32.2912 36.118 32.2925 36.2074C32.3002 36.2799 32.2019 36.9662 32.0727 37.7453L31.8393 39.1543L31.0479 39.3767C29.5915 39.7838 27.2484 40.1302 25.0121 40.2536C22.6719 40.3962 21.5575 40.4168 17.164 40.411L13.9285 40.4125L14.3358 39.8726C15.6215 38.1646 15.4333 35.7011 13.9071 34.2998C13.7174 34.1245 13.5616 33.9619 13.559 33.9377C13.5564 33.9136 13.6506 33.8792 13.7795 33.8655C13.8996 33.8446 15.2849 33.152 16.8508 32.318C18.4257 31.4913 19.7152 30.817 19.733 30.8314C19.75 30.8377 19.7425 31.0747 19.7313 31.3527ZM8.50353 33.1472L8.57362 33.8075L8.30058 33.9993C7.90544 34.2692 7.15837 35.2931 6.96324 35.8349C6.49508 37.106 6.6272 38.4273 7.32849 39.5824C7.65428 40.1178 8.47657 40.8773 9.01678 41.1294L9.36052 41.2964L9.43868 41.9558L9.50963 42.6241L7.73659 42.8123L5.96355 43.0006L5.42503 37.928L4.88651 32.8554L6.65954 32.6672L8.43258 32.4789L8.50353 33.1472ZM42.2627 30.3205C42.5963 30.5456 42.7374 30.9541 42.5986 31.3352C42.5161 31.5557 41.8581 32.1141 38.7744 34.5422C36.7212 36.1607 35.0097 37.466 34.9669 37.4462C34.8811 37.4064 33.8182 35.9152 33.8079 35.8186C33.8019 35.7622 41.008 30.4781 41.3608 30.2697C41.63 30.119 41.9987 30.1368 42.2627 30.3205ZM11.1527 34.2258C12.1717 34.3049 13.088 34.8753 13.6215 35.755C13.8968 36.1981 13.9355 36.3324 14.0081 37.0168C14.0825 37.7173 14.0703 37.8326 13.887 38.3324C13.5141 39.3491 12.7435 40.0742 11.7523 40.3341C10.3892 40.6987 9.00115 40.1376 8.27862 38.936C7.27109 37.276 8.02828 35.1193 9.8603 34.4118C10.3849 34.2096 10.5855 34.1801 11.1527 34.2258ZM33.8584 37.9058L34.0537 38.2108L33.6284 38.4269C33.388 38.542 33.1628 38.6474 33.1306 38.6508C33.0903 38.6551 33.0884 38.4843 33.1298 38.26C33.164 38.0447 33.2257 37.7043 33.2535 37.5059L33.3126 37.1414L33.4842 37.3756C33.5874 37.5031 33.7517 37.7462 33.8584 37.9058Z" fill="url(#paint2_linear_6060_162)"/>
<path id="Vector_4" d="M22.4563 31.0635C22.1897 31.3931 22.2175 31.7321 22.5346 32.0323C22.7253 32.2156 22.8271 32.2536 23.085 32.2263C23.7781 32.1527 23.9908 31.3159 23.4208 30.9367C23.0605 30.6899 22.7228 30.7339 22.4563 31.0635Z" fill="url(#paint3_linear_6060_162)"/>
<path id="Vector_5" d="M10.4183 36.8278C9.93079 37.303 10.3374 38.1392 11.0225 38.0665C11.3368 38.0331 11.5309 37.8659 11.6274 37.5463C11.8432 36.815 10.9651 36.2975 10.4183 36.8278Z" fill="url(#paint4_linear_6060_162)"/>
</g>
<defs>
<linearGradient id="paint0_linear_6060_162" x1="10.7814" y1="4.23986" x2="36.5792" y2="28.7507" gradientUnits="userSpaceOnUse">
<stop offset="0.101705" stop-color="#1C154F"/>
<stop offset="0.890708" stop-color="#42C09A"/>
</linearGradient>
<linearGradient id="paint1_linear_6060_162" x1="26.6142" y1="8.83338" x2="37.0499" y2="16.5015" gradientUnits="userSpaceOnUse">
<stop offset="0.101705" stop-color="#1C154F"/>
<stop offset="0.890708" stop-color="#42C09A"/>
</linearGradient>
<linearGradient id="paint2_linear_6060_162" x1="4.13123" y1="30.7311" x2="16.3647" y2="54.6839" gradientUnits="userSpaceOnUse">
<stop offset="0.101705" stop-color="#1C154F"/>
<stop offset="0.890708" stop-color="#42C09A"/>
</linearGradient>
<linearGradient id="paint3_linear_6060_162" x1="22.2298" y1="30.9085" x2="23.8537" y2="32.1205" gradientUnits="userSpaceOnUse">
<stop offset="0.101705" stop-color="#1C154F"/>
<stop offset="0.890708" stop-color="#42C09A"/>
</linearGradient>
<linearGradient id="paint4_linear_6060_162" x1="10.1605" y1="36.7421" x2="11.7885" y2="37.9382" gradientUnits="userSpaceOnUse">
<stop offset="0.101705" stop-color="#1C154F"/>
<stop offset="0.890708" stop-color="#42C09A"/>
</linearGradient>
</defs>
</svg>
