<svg width="44" height="44" viewBox="0 0 44 44" fill="none" xmlns="http://www.w3.org/2000/svg">
<g id="Group">
<path id="Vector" d="M3.24409 3.80132C1.86587 4.31628 0.896591 5.50648 0.658353 6.96481C0.542955 7.65047 3.18227 35.5196 3.42433 36.1714C3.61576 36.7025 3.89348 37.0685 4.38322 37.4379C4.87369 37.8151 5.4849 37.9769 6.3689 37.956L7.0812 37.9434L7.26752 39.9108L7.45383 41.8781L5.89409 42.0493L4.33436 42.2206L4.13331 42.4985C3.86894 42.8531 3.8984 43.1641 4.22462 43.4628L4.47428 43.698L23.8726 41.8845L43.2701 40.0631L43.4975 39.8141C43.6896 39.6076 43.7274 39.5099 43.7016 39.2377C43.6758 38.9655 43.6204 38.8766 43.3929 38.7099L43.1229 38.5079L41.6075 38.6514L40.0922 38.795L39.9052 36.8199L39.7189 34.8525L40.4208 34.7311C41.2931 34.5858 41.863 34.3121 42.274 33.8495C42.6857 33.3947 42.8897 32.9831 42.9781 32.4255C43.0935 31.7399 40.4541 3.87072 40.2121 3.21891C39.7028 1.81568 38.5203 0.837111 37.0474 0.600012C36.3784 0.490759 3.85806 3.57841 3.24409 3.80132ZM37.2649 2.23486C37.7518 2.40843 38.3048 2.86603 38.5588 3.31272C38.7274 3.60274 38.7805 3.83308 38.8952 4.79509L39.0352 5.94299L20.6882 7.68053L2.34119 9.41806L2.24693 8.42274C2.18581 7.77733 2.17827 7.28376 2.22611 7.04386C2.38224 6.29157 2.85764 5.68166 3.56454 5.36365C3.91799 5.20464 4.95078 5.09899 20.4163 3.65004L36.892 2.10541L37.2649 2.23486ZM40.332 19.8013C41.427 31.3642 41.4914 32.127 41.3836 32.3961C41.2017 32.8762 40.883 33.0711 40.1759 33.1381L39.562 33.1962L38.9891 27.1465C38.4353 21.299 38.4084 21.0975 38.2379 20.8705C38.1214 20.7167 37.9712 20.6211 37.764 20.5858C37.3574 20.5145 32.8192 20.9443 32.4332 21.0907C32.2363 21.1642 32.1067 21.2864 32.0212 21.4592C31.8956 21.7065 31.9041 21.8783 32.0933 23.8767L32.2981 26.0384L32.5377 26.2511C32.6838 26.3863 32.8729 26.4783 33.0538 26.4847C33.2984 26.5007 33.3809 26.4616 33.5801 26.2465L33.8222 25.9882L33.6828 24.2675L33.5433 22.5468L35.2529 22.3849L36.9547 22.2238L37.7464 30.583L38.538 38.9421L36.8285 39.104L35.1189 39.266L34.6909 34.9129L34.2552 30.5605L34.0263 30.3782C33.7115 30.1177 33.2297 30.1634 32.9694 30.4783L32.7788 30.7004L33.1678 35.0571L33.5647 39.4131L32.4768 39.5162L31.3888 39.6192L30.8939 34.5585L30.3912 29.4985L30.1134 29.2973L29.8348 29.0883L27.0784 29.3729L24.3142 29.6582L24.1131 29.9362L23.9113 30.2064L24.3863 35.2219L24.8613 40.2374L23.7734 40.3404L22.6855 40.4434L21.9056 32.2087C21.4277 27.1621 21.0873 23.8991 21.0289 23.7791C20.9797 23.6739 20.8414 23.5379 20.7097 23.4719C20.5036 23.3659 20.2535 23.3739 17.7979 23.6065C15.3423 23.839 15.0951 23.8781 14.9126 24.021C14.7957 24.1105 14.6853 24.27 14.6568 24.3825C14.6219 24.5114 14.9001 27.7802 15.3781 32.8269L16.1579 41.0616L15.07 41.1647L13.9899 41.2669L13.5829 37.2179L13.1759 33.1688L12.8981 32.9676L12.6196 32.7586L9.87089 33.0424L7.11444 33.327L6.92525 33.5646C6.72755 33.7952 6.72828 33.8029 6.82206 35.0415L6.91658 36.2879L6.31045 36.3453C5.6033 36.4123 5.25369 36.2806 4.98488 35.8432C4.82848 35.5991 4.74854 34.8378 3.65349 23.2749L2.48847 10.9733L20.8277 9.23646L39.167 7.49966L40.332 19.8013ZM20.3912 32.7758L21.1313 40.5906L19.4217 40.7525L17.7121 40.9144L16.972 33.0996L16.2319 25.2847L17.9415 25.1228L19.6511 24.9609L20.3912 32.7758ZM29.4075 35.2563L29.8347 39.7664L28.1251 39.9283L26.4155 40.0902L25.9884 35.5801L25.5612 31.07L27.2708 30.9081L28.9804 30.7462L29.4075 35.2563ZM12.0965 37.9157L12.4279 41.4149L10.7183 41.5768L9.00874 41.7387L8.67735 38.2395L8.34597 34.7403L10.0556 34.5784L11.7651 34.4165L12.0965 37.9157Z" fill="url(#paint0_linear_6060_136)"/>
<path id="Vector_2" d="M5.22975 6.39073C4.7523 6.64778 4.68131 7.3057 5.09744 7.64289C5.60861 8.07307 6.37031 7.67141 6.30698 7.00267C6.25837 6.48946 5.66205 6.15365 5.22975 6.39073Z" fill="url(#paint1_linear_6060_136)"/>
<path id="Vector_3" d="M8.33912 6.0963C7.86167 6.35335 7.79069 7.01127 8.20681 7.34845C8.71798 7.77863 9.47968 7.37698 9.41635 6.70824C9.36775 6.19503 8.77142 5.85921 8.33912 6.0963Z" fill="url(#paint2_linear_6060_136)"/>
<path id="Vector_4" d="M11.4465 5.80186C10.9691 6.05891 10.8981 6.71683 11.3142 7.05402C11.8254 7.4842 12.5871 7.08254 12.5238 6.41381C12.4752 5.90059 11.8788 5.56478 11.4465 5.80186Z" fill="url(#paint3_linear_6060_136)"/>
<path id="Vector_5" d="M17.508 5.2277C17.0305 5.48475 16.9595 6.14267 17.3756 6.47986L17.6061 6.67772L26.6613 5.84368L35.7081 5.00261L35.9432 4.75282C36.1353 4.54633 36.1731 4.4486 36.1473 4.17644C36.1216 3.90428 36.0661 3.81538 35.8386 3.64863L35.5686 3.44668L26.6095 4.30298C21.6906 4.76883 17.5905 5.1885 17.508 5.2277Z" fill="url(#paint4_linear_6060_136)"/>
<path id="Vector_6" d="M5.27117 13.4478C5.03281 13.5802 4.87764 13.846 4.85123 14.1466C4.83594 14.3991 4.87365 14.4662 5.13738 14.6844L5.43513 14.9308L7.54881 14.7306L9.66249 14.5305L9.90869 14.2326C10.1268 13.9687 10.1512 13.8958 10.0888 13.6506C10.043 13.498 9.91357 13.2906 9.79447 13.192L9.58105 13.0083L7.49699 13.1899C6.35393 13.2903 5.3537 13.4086 5.27117 13.4478Z" fill="url(#paint5_linear_6060_136)"/>
<path id="Vector_7" d="M11.8757 12.8225C11.4278 13.0611 11.3428 13.736 11.7186 14.0613C12.2405 14.5219 13.0565 14.115 12.9917 13.4308C12.9402 12.8864 12.3616 12.5725 11.8757 12.8225Z" fill="url(#paint6_linear_6060_136)"/>
<path id="Vector_8" d="M15.6966 13.261C14.9901 13.5005 14.2797 14.1954 14.0119 14.9269C13.7292 15.6677 13.8179 16.6871 14.2076 17.3249L14.3825 17.5986L12.2995 20.1104L10.2159 22.6143L9.82111 22.5027C9.5551 22.4259 9.2243 22.4101 8.8513 22.4454C7.28936 22.5934 6.20605 23.9042 6.35407 25.4672C6.4314 26.2836 6.71681 26.8137 7.36336 27.3487C8.05245 27.9189 8.59225 28.0718 9.46667 27.9498C10.9606 27.7455 11.9546 26.5687 11.8832 25.0691C11.8638 24.6159 11.8099 24.3777 11.6517 24.0318L11.4443 23.5807L13.4976 21.0875C15.4461 18.7297 15.5742 18.592 15.7962 18.618C17.0376 18.728 17.1231 18.7199 17.6968 18.4851L18.2549 18.2518L21.1473 20.6454L24.0398 23.0391L23.9127 23.4355C23.4469 24.8919 24.228 26.4341 25.7049 26.9611C26.0941 27.0969 26.2766 27.1188 26.8276 27.0588C27.3871 27.0058 27.5628 26.9578 27.9415 26.7336C29.1762 26.0283 29.6953 24.4727 29.1287 23.2083L28.9184 22.7261L31.2953 19.8413L33.6722 16.9565L33.9889 16.9893C35.4142 17.1367 36.6101 16.4351 37.0928 15.1576C37.2747 14.6774 37.2862 14.5508 37.2303 13.9598C37.1702 13.4085 37.1215 13.2248 36.8974 12.8459C36.5765 12.2722 35.9909 11.8019 35.3576 11.5716C34.9436 11.4225 34.7697 11.4076 34.2102 11.4606C33.6507 11.5136 33.4827 11.5609 33.104 11.7851C32.5174 12.1309 32.0383 12.7019 31.8308 13.3257C31.6818 13.74 31.6684 13.9295 31.7129 14.4823C31.7689 15.0733 31.8125 15.2026 32.0621 15.6026L32.3409 16.0626L30.0125 18.8801L27.6763 21.6983L27.1635 21.5821C26.5934 21.4399 25.8566 21.5254 25.3714 21.7832L25.1182 21.9248L22.1662 19.4819L19.2219 17.0383L19.3291 16.5966C19.5497 15.697 19.2863 14.6549 18.6846 14.0137C17.9183 13.2075 16.7299 12.9121 15.6966 13.261ZM17.0783 14.7699C17.7202 15.0073 18.0506 15.8468 17.7299 16.4343C17.3818 17.0635 16.8307 17.2883 16.2051 17.0573C15.7253 16.8752 15.4653 16.531 15.4174 16.0256C15.3283 15.0847 16.1845 14.4387 17.0783 14.7699ZM34.8537 13.0394C35.6935 13.2973 35.9772 14.306 35.4074 14.9955C35.1049 15.3615 34.7726 15.495 34.3067 15.4606C34.1321 15.438 33.902 15.3264 33.6978 15.1574C32.6429 14.2844 33.5447 12.6299 34.8537 13.0394ZM9.76595 24.1555C10.4558 24.5687 10.5264 25.6448 9.89377 26.1676C9.15973 26.7784 7.99179 26.2849 7.90121 25.3285C7.80695 24.3332 8.90958 23.6403 9.76595 24.1555ZM27.1528 23.2072C27.5771 23.4651 27.725 23.7022 27.7713 24.1921C27.8177 24.6819 27.717 24.9425 27.3338 25.2848C27.0458 25.5553 26.345 25.606 25.9802 25.3973C25.6565 25.2083 25.3552 24.7582 25.3235 24.4239C25.2801 23.9651 25.6171 23.384 26.0656 23.1532C26.2744 23.0393 26.9282 23.0715 27.1528 23.2072Z" fill="url(#paint7_linear_6060_136)"/>
<path id="Vector_9" d="M5.62468 17.1802C5.38632 17.3126 5.23116 17.5784 5.20475 17.879C5.18946 18.1316 5.22717 18.1986 5.4909 18.4168L5.78865 18.6632L7.90233 18.4631L10.016 18.2629L10.2622 17.965C10.4803 17.7011 10.5047 17.6282 10.4423 17.383C10.3965 17.2305 10.2671 17.023 10.148 16.9245L9.93457 16.7407L7.8505 16.9224C6.70745 17.0228 5.70722 17.141 5.62468 17.1802Z" fill="url(#paint8_linear_6060_136)"/>
<path id="Vector_10" d="M32.7718 27.9863C32.1342 28.7057 33.1069 29.7042 33.8147 29.0644C34.3563 28.5737 33.9663 27.6849 33.2436 27.7533C33.0494 27.7717 32.8998 27.8486 32.7718 27.9863Z" fill="url(#paint9_linear_6060_136)"/>
</g>
<defs>
<linearGradient id="paint0_linear_6060_136" x1="47.2469" y1="38.1762" x2="2.4551" y2="6.3158" gradientUnits="userSpaceOnUse">
<stop stop-color="#42C09A"/>
<stop offset="1" stop-color="#1C154F"/>
</linearGradient>
<linearGradient id="paint1_linear_6060_136" x1="6.50434" y1="7.67906" x2="4.81905" y2="6.5011" gradientUnits="userSpaceOnUse">
<stop stop-color="#42C09A"/>
<stop offset="1" stop-color="#1C154F"/>
</linearGradient>
<linearGradient id="paint2_linear_6060_136" x1="9.61372" y1="7.38462" x2="7.92842" y2="6.20667" gradientUnits="userSpaceOnUse">
<stop stop-color="#42C09A"/>
<stop offset="1" stop-color="#1C154F"/>
</linearGradient>
<linearGradient id="paint3_linear_6060_136" x1="12.7211" y1="7.09019" x2="11.0358" y2="5.91223" gradientUnits="userSpaceOnUse">
<stop stop-color="#42C09A"/>
<stop offset="1" stop-color="#1C154F"/>
</linearGradient>
<linearGradient id="paint4_linear_6060_136" x1="37.9163" y1="4.7345" x2="37.3034" y2="1.52402" gradientUnits="userSpaceOnUse">
<stop stop-color="#42C09A"/>
<stop offset="1" stop-color="#1C154F"/>
</linearGradient>
<linearGradient id="paint5_linear_6060_136" x1="10.6465" y1="14.3791" x2="9.39728" y2="11.5775" gradientUnits="userSpaceOnUse">
<stop stop-color="#42C09A"/>
<stop offset="1" stop-color="#1C154F"/>
</linearGradient>
<linearGradient id="paint6_linear_6060_136" x1="13.1922" y1="14.1122" x2="11.4897" y2="12.907" gradientUnits="userSpaceOnUse">
<stop stop-color="#42C09A"/>
<stop offset="1" stop-color="#1C154F"/>
</linearGradient>
<linearGradient id="paint7_linear_6060_136" x1="41.1447" y1="25.1428" x2="25.8636" y2="2.30943" gradientUnits="userSpaceOnUse">
<stop stop-color="#42C09A"/>
<stop offset="1" stop-color="#1C154F"/>
</linearGradient>
<linearGradient id="paint8_linear_6060_136" x1="11" y1="18.1115" x2="9.7508" y2="15.3099" gradientUnits="userSpaceOnUse">
<stop stop-color="#42C09A"/>
<stop offset="1" stop-color="#1C154F"/>
</linearGradient>
<linearGradient id="paint9_linear_6060_136" x1="34.2649" y1="29.1252" x2="32.5678" y2="27.9319" gradientUnits="userSpaceOnUse">
<stop stop-color="#42C09A"/>
<stop offset="1" stop-color="#1C154F"/>
</linearGradient>
</defs>
</svg>
